<?xml version="1.0" encoding="UTF-8" standalone="no"?>
<!DOCTYPE svg PUBLIC "-//W3C//DTD SVG 1.1//EN" "http://www.w3.org/Graphics/SVG/1.1/DTD/svg11.dtd">
<svg width="100%" height="100%" viewBox="0 0 24 24" version="1.1" xmlns="http://www.w3.org/2000/svg" xmlns:xlink="http://www.w3.org/1999/xlink" xml:space="preserve" xmlns:serif="http://www.serif.com/" style="fill-rule:evenodd;clip-rule:evenodd;stroke-linecap:round;stroke-linejoin:round;">
    <path d="M2,9.35L2,5C2,3.903 2.903,3 4,3L7.9,3C8.579,2.993 9.217,3.333 9.59,3.9L10.4,5.1C10.77,5.661 11.398,6 12.07,6L20,6C21.097,6 22,6.903 22,8L22,18C22,19.097 21.097,20 20,20L4,20C2.903,20 2,19.097 2,18L2,15C2,13.903 2.903,13 4,13L11,13" style="fill:none;fill-rule:nonzero;stroke:white;stroke-width:2px;"/>
    <path d="M8,16L11,13L8,10" style="fill:none;fill-rule:nonzero;stroke:white;stroke-width:2px;"/>
</svg>
